# xmcd CD database file
#
# Track frame offsets:
#	150
#	14255
#	31942
#	52135
#	66710
#	88397
#	111307
#	140835
#	157432
#	187000
#	213582
#	252945
#	274795
#	292282
#
# Disc length: 4232 seconds
#
# Revision: 15
# Processed by: cddbd v1.5.2PL0 Copyright (c) Steve Scherf et al.
# Submitted via: CDex 1.70beta2
#
DISCID=f410860e
DTITLE=Tom Waits - The Asylum Years
DYEAR=1986
DGENRE=Rock
TTITLE0=Diamonds On My Windshield
TTITLE1=(Looking For) The Heart Of Saturday Night
TTITLE2=Martha
TTITLE3=The Ghosts Of Saturday Night (After Hours At Napoleone's Pizza House)
TTITLE4=Grapefruit Moon
TTITLE5=Small Change
TTITLE6=Burma Shave
TTITLE7=I Never Talk To Strangers
TTITLE8=Tom Traubert's Blues
TTITLE9=Blue Valentines
TTITLE10=Potter's Field
TTITLE11=Kentucky Avenue
TTITLE12=Somewhere (From 'West Side Story')
TTITLE13=Ruby's Arms
EXTD=YEAR: 1986
EXTT0=
EXTT1=
EXTT2=
EXTT3=
EXTT4=
EXTT5=
EXTT6=
EXTT7=
EXTT8=
EXTT9=
EXTT10=
EXTT11=
EXTT12=
EXTT13=
PLAYORDER=
